<svg xmlns="http://www.w3.org/2000/svg" width="980" height="520" viewBox="0 0 980 520" role="img" aria-labelledby="title desc">
<title id="title">优惠券从触达到核销的漏斗</title>
<desc id="desc">公共券、老年定向券和混合券的触达、参与、获券与核销人数比较。</desc>
<rect width="100%" height="100%" fill="#ffffff"/>
<style>text{font-family:"Microsoft YaHei","Noto Sans CJK SC",Arial,sans-serif;fill:#263238}.title{font-size:24px;font-weight:600}.subtitle{font-size:13px;fill:#607d8b}.axis{stroke:#cfd8dc;stroke-width:1}.tick{font-size:11px;fill:#607d8b}.label{font-size:12px}.value{font-size:11px;font-weight:600}</style>
<text x="48" y="42" class="title">优惠券从触达到核销的漏斗</text>
<text x="48" y="66" class="subtitle">200 Agents、W2、10 seeds；条长为每个 seed 的平均人数</text>
<text x="172" y="151" text-anchor="end" class="label" font-weight="600">C1 公共券</text>
<rect x="190" y="115" width="669.9" height="15" rx="3" fill="#B39DDB"/>
<text x="866.9" y="127" class="value">191.4</text>
<rect x="190" y="136" width="450.1" height="15" rx="3" fill="#64B5F6"/>
<text x="647.1" y="148" class="value">128.6</text>
<rect x="190" y="157" width="140.0" height="15" rx="3" fill="#4DB6AC"/>
<text x="337.0" y="169" class="value">40.0</text>
<rect x="190" y="178" width="57.1" height="15" rx="3" fill="#FFB74D"/>
<text x="254.1" y="190" class="value">16.3</text>
<text x="172" y="266" text-anchor="end" class="label" font-weight="600">C2 老年定向券</text>
<rect x="190" y="230" width="158.9" height="15" rx="3" fill="#B39DDB"/>
<text x="355.9" y="242" class="value">45.4</text>
<rect x="190" y="251" width="0.0" height="15" rx="3" fill="#64B5F6"/>
<text x="197.0" y="263" class="value">0.0</text>
<rect x="190" y="272" width="140.0" height="15" rx="3" fill="#4DB6AC"/>
<text x="337.0" y="284" class="value">40.0</text>
<rect x="190" y="293" width="4.6" height="15" rx="3" fill="#FFB74D"/>
<text x="201.6" y="305" class="value">1.3</text>
<text x="172" y="381" text-anchor="end" class="label" font-weight="600">C3 混合券</text>
<rect x="190" y="345" width="684.6" height="15" rx="3" fill="#B39DDB"/>
<text x="881.6" y="357" class="value">195.6</text>
<rect x="190" y="366" width="450.1" height="15" rx="3" fill="#64B5F6"/>
<text x="647.1" y="378" class="value">128.6</text>
<rect x="190" y="387" width="140.0" height="15" rx="3" fill="#4DB6AC"/>
<text x="337.0" y="399" class="value">40.0</text>
<rect x="190" y="408" width="40.9" height="15" rx="3" fill="#FFB74D"/>
<text x="237.9" y="420" class="value">11.7</text>
<rect x="255" y="473" width="16" height="16" rx="2" fill="#B39DDB"/>
<text x="279" y="486" class="label">触达</text>
<rect x="395" y="473" width="16" height="16" rx="2" fill="#64B5F6"/>
<text x="419" y="486" class="label">参与</text>
<rect x="535" y="473" width="16" height="16" rx="2" fill="#4DB6AC"/>
<text x="559" y="486" class="label">获券</text>
<rect x="675" y="473" width="16" height="16" rx="2" fill="#FFB74D"/>
<text x="699" y="486" class="label">核销</text>
</svg>
