<svg xmlns="http://www.w3.org/2000/svg" width="980" height="620" viewBox="0 0 980 620" role="img" aria-labelledby="title desc">
<title id="title">九区合成城市与多方式网络</title>
<desc id="desc">道路、公交和地铁在九个合成功能区之间的示意连接。</desc>
<rect width="100%" height="100%" fill="#ffffff"/>
<style>text{font-family:"Microsoft YaHei","Noto Sans CJK SC",Arial,sans-serif;fill:#263238}.title{font-size:24px;font-weight:600}.subtitle{font-size:13px;fill:#607d8b}.axis{stroke:#cfd8dc;stroke-width:1}.tick{font-size:11px;fill:#607d8b}.label{font-size:12px}.value{font-size:11px;font-weight:600}</style>
<text x="48" y="42" class="title">九区合成城市与多方式网络</text>
<text x="48" y="66" class="subtitle">示意布局来自可审计的半径与角度参数，不代表上海行政区边界</text>
<line x1="466.9" y1="347.9" x2="463.9" y2="254.5" stroke="#b0bec5" stroke-width="3"/>
<line x1="466.9" y1="347.9" x2="426.0" y2="433.6" stroke="#b0bec5" stroke-width="3"/>
<line x1="466.9" y1="347.9" x2="295.8" y2="550.0" stroke="#b0bec5" stroke-width="3"/>
<line x1="466.9" y1="347.9" x2="684.3" y2="347.9" stroke="#b0bec5" stroke-width="3"/>
<line x1="463.9" y1="254.5" x2="691.2" y2="154.6" stroke="#b0bec5" stroke-width="3"/>
<line x1="463.9" y1="254.5" x2="347.3" y2="260.9" stroke="#b0bec5" stroke-width="3"/>
<line x1="426.0" y1="433.6" x2="700.0" y2="550.0" stroke="#b0bec5" stroke-width="3"/>
<line x1="426.0" y1="433.6" x2="295.8" y2="550.0" stroke="#b0bec5" stroke-width="3"/>
<line x1="691.2" y1="154.6" x2="684.3" y2="347.9" stroke="#b0bec5" stroke-width="3"/>
<line x1="700.0" y1="550.0" x2="684.3" y2="347.9" stroke="#b0bec5" stroke-width="3"/>
<line x1="295.8" y1="550.0" x2="70.0" y2="547.5" stroke="#b0bec5" stroke-width="3"/>
<polyline points="347.3,260.9 463.9,254.5 466.9,347.9 684.3,347.9 691.2,154.6" fill="none" stroke="#2F80ED" stroke-width="3" stroke-opacity="0.62" stroke-linejoin="round"/>
<polyline points="70.0,547.5 295.8,550.0 426.0,433.6 466.9,347.9" fill="none" stroke="#2F80ED" stroke-width="3" stroke-opacity="0.62" stroke-linejoin="round"/>
<polyline points="295.8,550.0 466.9,347.9 684.3,347.9 700.0,550.0" fill="none" stroke="#2F80ED" stroke-width="3" stroke-opacity="0.62" stroke-linejoin="round"/>
<polyline points="691.2,154.6 463.9,254.5 466.9,347.9 426.0,433.6 700.0,550.0" fill="none" stroke="#2F80ED" stroke-width="3" stroke-opacity="0.62" stroke-linejoin="round"/>
<polyline points="347.3,260.9 463.9,254.5 466.9,347.9 684.3,347.9 691.2,154.6" fill="none" stroke="#9C27B0" stroke-width="5" stroke-opacity="0.72" stroke-linejoin="round"/>
<polyline points="295.8,550.0 426.0,433.6 466.9,347.9" fill="none" stroke="#9C27B0" stroke-width="5" stroke-opacity="0.72" stroke-linejoin="round"/>
<polyline points="426.0,433.6 700.0,550.0 684.3,347.9" fill="none" stroke="#9C27B0" stroke-width="5" stroke-opacity="0.72" stroke-linejoin="round"/>
<circle cx="466.9" cy="347.9" r="17.1" fill="#FFE082" stroke="#455a64" stroke-width="1.5"/>
<text x="466.9" y="351.9" text-anchor="middle" class="value">Z1</text>
<circle cx="463.9" cy="254.5" r="18.1" fill="#A5D6A7" stroke="#455a64" stroke-width="1.5"/>
<text x="463.9" y="258.5" text-anchor="middle" class="value">Z2</text>
<circle cx="426.0" cy="433.6" r="18.0" fill="#A5D6A7" stroke="#455a64" stroke-width="1.5"/>
<text x="426.0" y="437.6" text-anchor="middle" class="value">Z3</text>
<circle cx="691.2" cy="154.6" r="18.2" fill="#90CAF9" stroke="#455a64" stroke-width="1.5"/>
<text x="691.2" y="158.6" text-anchor="middle" class="value">Z4</text>
<circle cx="700.0" cy="550.0" r="18.4" fill="#90CAF9" stroke="#455a64" stroke-width="1.5"/>
<text x="700.0" y="554.0" text-anchor="middle" class="value">Z5</text>
<circle cx="295.8" cy="550.0" r="18.5" fill="#90CAF9" stroke="#455a64" stroke-width="1.5"/>
<text x="295.8" y="554.0" text-anchor="middle" class="value">Z6</text>
<circle cx="684.3" cy="347.9" r="19.6" fill="#90CAF9" stroke="#455a64" stroke-width="1.5"/>
<text x="684.3" y="351.9" text-anchor="middle" class="value">Z7</text>
<circle cx="347.3" cy="260.9" r="18.4" fill="#90CAF9" stroke="#455a64" stroke-width="1.5"/>
<text x="347.3" y="264.9" text-anchor="middle" class="value">Z8</text>
<circle cx="70.0" cy="547.5" r="18.7" fill="#FFAB91" stroke="#455a64" stroke-width="1.5"/>
<text x="70.0" y="551.5" text-anchor="middle" class="value">Z9</text>
<text x="755" y="110" class="label" font-weight="600">图例</text>
<line x1="755" y1="142" x2="801" y2="142" stroke="#b0bec5" stroke-width="3"/>
<text x="813" y="146" class="label">道路连接</text>
<line x1="755" y1="176" x2="801" y2="176" stroke="#2F80ED" stroke-width="3"/>
<text x="813" y="180" class="label">公交线路</text>
<line x1="755" y1="210" x2="801" y2="210" stroke="#9C27B0" stroke-width="5"/>
<text x="813" y="214" class="label">地铁线路</text>
<circle cx="767" cy="265" r="10" fill="#FFE082" stroke="#455a64"/>
<text x="789" y="269" class="label">核心</text>
<circle cx="767" cy="295" r="10" fill="#A5D6A7" stroke="#455a64"/>
<text x="789" y="299" class="label">内圈</text>
<circle cx="767" cy="325" r="10" fill="#90CAF9" stroke="#455a64"/>
<text x="789" y="329" class="label">外围</text>
<circle cx="767" cy="355" r="10" fill="#FFAB91" stroke="#455a64"/>
<text x="789" y="359" class="label">远郊</text>
<text x="755" y="420" class="subtitle">节点面积仅用于视觉区分目标面积</text>
<text x="755" y="442" class="subtitle">Z9 通过 Z6 接入主体网络</text>
</svg>
