<svg xmlns="http://www.w3.org/2000/svg" width="1080" height="650" viewBox="0 0 1080 650" role="img" aria-labelledby="title desc">
<title id="title">强降雨下的政策权衡</title>
<desc id="desc">四种优惠券政策在网约车请求、派单失败、必要活动完成率和补贴支出上的比较。</desc>
<rect width="100%" height="100%" fill="#ffffff"/>
<style>text{font-family:"Microsoft YaHei","Noto Sans CJK SC",Arial,sans-serif;fill:#263238}.title{font-size:24px;font-weight:600}.subtitle{font-size:13px;fill:#607d8b}.axis{stroke:#cfd8dc;stroke-width:1}.tick{font-size:11px;fill:#607d8b}.label{font-size:12px}.value{font-size:11px;font-weight:600}</style>
<text x="48" y="42" class="title">强降雨下的政策权衡</text>
<text x="48" y="66" class="subtitle">200 Agents、W2、10 seeds；均值与 95% t 区间。不同面板纵轴独立。</text>
<text x="172.5" y="96" text-anchor="middle" class="label" font-weight="600">网约车请求</text>
<line x1="55" y1="545" x2="290" y2="545" class="axis"/>
<line x1="55" y1="115" x2="55" y2="545" class="axis"/>
<line x1="55" y1="545.0" x2="290" y2="545.0" class="axis"/>
<text x="47" y="549.0" text-anchor="end" class="tick">0次</text>
<line x1="55" y1="437.5" x2="290" y2="437.5" class="axis"/>
<text x="47" y="441.5" text-anchor="end" class="tick">19次</text>
<line x1="55" y1="330.0" x2="290" y2="330.0" class="axis"/>
<text x="47" y="334.0" text-anchor="end" class="tick">38次</text>
<line x1="55" y1="222.5" x2="290" y2="222.5" class="axis"/>
<text x="47" y="226.5" text-anchor="end" class="tick">56次</text>
<line x1="55" y1="115.0" x2="290" y2="115.0" class="axis"/>
<text x="47" y="119.0" text-anchor="end" class="tick">75次</text>
<rect x="71" y="221.6" width="38" height="323.4" rx="3" fill="#90A4AE"/>
<line x1="90.0" y1="192.2" x2="90.0" y2="251.1" stroke="#37474f"/>
<line x1="86.0" y1="192.2" x2="94.0" y2="192.2" stroke="#37474f"/>
<text x="90.0" y="214.6" text-anchor="middle" class="value">56.4</text>
<text x="90.0" y="569" text-anchor="middle" class="tick">C0</text>
<rect x="125" y="173.5" width="38" height="371.5" rx="3" fill="#2F80ED"/>
<line x1="144.0" y1="147.1" x2="144.0" y2="199.8" stroke="#37474f"/>
<line x1="140.0" y1="147.1" x2="148.0" y2="147.1" stroke="#37474f"/>
<text x="144.0" y="166.5" text-anchor="middle" class="value">64.8</text>
<text x="144.0" y="569" text-anchor="middle" class="tick">C1</text>
<rect x="179" y="215.9" width="38" height="329.1" rx="3" fill="#00A896"/>
<line x1="198.0" y1="185.7" x2="198.0" y2="246.1" stroke="#37474f"/>
<line x1="194.0" y1="185.7" x2="202.0" y2="185.7" stroke="#37474f"/>
<text x="198.0" y="208.9" text-anchor="middle" class="value">57.4</text>
<text x="198.0" y="569" text-anchor="middle" class="tick">C2</text>
<rect x="233" y="184.9" width="38" height="360.1" rx="3" fill="#F2994A"/>
<line x1="252.0" y1="159.9" x2="252.0" y2="210.0" stroke="#37474f"/>
<line x1="248.0" y1="159.9" x2="256.0" y2="159.9" stroke="#37474f"/>
<text x="252.0" y="177.9" text-anchor="middle" class="value">62.8</text>
<text x="252.0" y="569" text-anchor="middle" class="tick">C3</text>
<text x="427.5" y="96" text-anchor="middle" class="label" font-weight="600">派单失败</text>
<line x1="310" y1="545" x2="545" y2="545" class="axis"/>
<line x1="310" y1="115" x2="310" y2="545" class="axis"/>
<line x1="310" y1="545.0" x2="545" y2="545.0" class="axis"/>
<text x="302" y="549.0" text-anchor="end" class="tick">0次</text>
<line x1="310" y1="437.5" x2="545" y2="437.5" class="axis"/>
<text x="302" y="441.5" text-anchor="end" class="tick">1次</text>
<line x1="310" y1="330.0" x2="545" y2="330.0" class="axis"/>
<text x="302" y="334.0" text-anchor="end" class="tick">2次</text>
<line x1="310" y1="222.5" x2="545" y2="222.5" class="axis"/>
<text x="302" y="226.5" text-anchor="end" class="tick">2次</text>
<line x1="310" y1="115.0" x2="545" y2="115.0" class="axis"/>
<text x="302" y="119.0" text-anchor="end" class="tick">3次</text>
<rect x="326" y="373.0" width="38" height="172.0" rx="3" fill="#90A4AE"/>
<line x1="345.0" y1="238.0" x2="345.0" y2="508.0" stroke="#37474f"/>
<line x1="341.0" y1="238.0" x2="349.0" y2="238.0" stroke="#37474f"/>
<text x="345.0" y="366.0" text-anchor="middle" class="value">1.2</text>
<text x="345.0" y="569" text-anchor="middle" class="tick">C0</text>
<rect x="380" y="287.0" width="38" height="258.0" rx="3" fill="#2F80ED"/>
<line x1="399.0" y1="135.7" x2="399.0" y2="438.3" stroke="#37474f"/>
<line x1="395.0" y1="135.7" x2="403.0" y2="135.7" stroke="#37474f"/>
<text x="399.0" y="280.0" text-anchor="middle" class="value">1.8</text>
<text x="399.0" y="569" text-anchor="middle" class="tick">C1</text>
<rect x="434" y="373.0" width="38" height="172.0" rx="3" fill="#00A896"/>
<line x1="453.0" y1="238.0" x2="453.0" y2="508.0" stroke="#37474f"/>
<line x1="449.0" y1="238.0" x2="457.0" y2="238.0" stroke="#37474f"/>
<text x="453.0" y="366.0" text-anchor="middle" class="value">1.2</text>
<text x="453.0" y="569" text-anchor="middle" class="tick">C2</text>
<rect x="488" y="358.7" width="38" height="186.3" rx="3" fill="#F2994A"/>
<line x1="507.0" y1="230.3" x2="507.0" y2="487.0" stroke="#37474f"/>
<line x1="503.0" y1="230.3" x2="511.0" y2="230.3" stroke="#37474f"/>
<text x="507.0" y="351.7" text-anchor="middle" class="value">1.3</text>
<text x="507.0" y="569" text-anchor="middle" class="tick">C3</text>
<text x="682.5" y="96" text-anchor="middle" class="label" font-weight="600">必要活动完成率</text>
<line x1="565" y1="545" x2="800" y2="545" class="axis"/>
<line x1="565" y1="115" x2="565" y2="545" class="axis"/>
<line x1="565" y1="545.0" x2="800" y2="545.0" class="axis"/>
<text x="557" y="549.0" text-anchor="end" class="tick">92%</text>
<line x1="565" y1="437.5" x2="800" y2="437.5" class="axis"/>
<text x="557" y="441.5" text-anchor="end" class="tick">94%</text>
<line x1="565" y1="330.0" x2="800" y2="330.0" class="axis"/>
<text x="557" y="334.0" text-anchor="end" class="tick">96%</text>
<line x1="565" y1="222.5" x2="800" y2="222.5" class="axis"/>
<text x="557" y="226.5" text-anchor="end" class="tick">98%</text>
<line x1="565" y1="115.0" x2="800" y2="115.0" class="axis"/>
<text x="557" y="119.0" text-anchor="end" class="tick">100%</text>
<rect x="581" y="286.7" width="38" height="258.3" rx="3" fill="#90A4AE"/>
<line x1="600.0" y1="224.3" x2="600.0" y2="349.2" stroke="#37474f"/>
<line x1="596.0" y1="224.3" x2="604.0" y2="224.3" stroke="#37474f"/>
<text x="600.0" y="279.7" text-anchor="middle" class="value">96.8</text>
<text x="600.0" y="569" text-anchor="middle" class="tick">C0</text>
<rect x="635" y="279.4" width="38" height="265.6" rx="3" fill="#2F80ED"/>
<line x1="654.0" y1="223.0" x2="654.0" y2="335.9" stroke="#37474f"/>
<line x1="650.0" y1="223.0" x2="658.0" y2="223.0" stroke="#37474f"/>
<text x="654.0" y="272.4" text-anchor="middle" class="value">96.9</text>
<text x="654.0" y="569" text-anchor="middle" class="tick">C1</text>
<rect x="689" y="286.7" width="38" height="258.3" rx="3" fill="#00A896"/>
<line x1="708.0" y1="224.3" x2="708.0" y2="349.2" stroke="#37474f"/>
<line x1="704.0" y1="224.3" x2="712.0" y2="224.3" stroke="#37474f"/>
<text x="708.0" y="279.7" text-anchor="middle" class="value">96.8</text>
<text x="708.0" y="569" text-anchor="middle" class="tick">C2</text>
<rect x="743" y="283.1" width="38" height="261.9" rx="3" fill="#F2994A"/>
<line x1="762.0" y1="224.1" x2="762.0" y2="342.0" stroke="#37474f"/>
<line x1="758.0" y1="224.1" x2="766.0" y2="224.1" stroke="#37474f"/>
<text x="762.0" y="276.1" text-anchor="middle" class="value">96.9</text>
<text x="762.0" y="569" text-anchor="middle" class="tick">C3</text>
<text x="937.5" y="96" text-anchor="middle" class="label" font-weight="600">补贴支出</text>
<line x1="820" y1="545" x2="1055" y2="545" class="axis"/>
<line x1="820" y1="115" x2="820" y2="545" class="axis"/>
<line x1="820" y1="545.0" x2="1055" y2="545.0" class="axis"/>
<text x="812" y="549.0" text-anchor="end" class="tick">0元</text>
<line x1="820" y1="437.5" x2="1055" y2="437.5" class="axis"/>
<text x="812" y="441.5" text-anchor="end" class="tick">32元</text>
<line x1="820" y1="330.0" x2="1055" y2="330.0" class="axis"/>
<text x="812" y="334.0" text-anchor="end" class="tick">65元</text>
<line x1="820" y1="222.5" x2="1055" y2="222.5" class="axis"/>
<text x="812" y="226.5" text-anchor="end" class="tick">98元</text>
<line x1="820" y1="115.0" x2="1055" y2="115.0" class="axis"/>
<text x="812" y="119.0" text-anchor="end" class="tick">130元</text>
<rect x="836" y="545.0" width="38" height="0.0" rx="3" fill="#90A4AE"/>
<line x1="855.0" y1="545.0" x2="855.0" y2="545.0" stroke="#37474f"/>
<line x1="851.0" y1="545.0" x2="859.0" y2="545.0" stroke="#37474f"/>
<text x="855.0" y="538.0" text-anchor="middle" class="value">0.0</text>
<text x="855.0" y="569" text-anchor="middle" class="tick">C0</text>
<rect x="890" y="157.4" width="38" height="387.6" rx="3" fill="#2F80ED"/>
<line x1="909.0" y1="115.0" x2="909.0" y2="231.1" stroke="#37474f"/>
<line x1="905.0" y1="115.0" x2="913.0" y2="115.0" stroke="#37474f"/>
<text x="909.0" y="150.4" text-anchor="middle" class="value">117.2</text>
<text x="909.0" y="569" text-anchor="middle" class="tick">C1</text>
<rect x="944" y="525.2" width="38" height="19.8" rx="3" fill="#00A896"/>
<line x1="963.0" y1="515.8" x2="963.0" y2="534.5" stroke="#37474f"/>
<line x1="959.0" y1="515.8" x2="967.0" y2="515.8" stroke="#37474f"/>
<text x="963.0" y="518.2" text-anchor="middle" class="value">6.0</text>
<text x="963.0" y="569" text-anchor="middle" class="tick">C2</text>
<rect x="998" y="271.6" width="38" height="273.4" rx="3" fill="#F2994A"/>
<line x1="1017.0" y1="215.3" x2="1017.0" y2="327.9" stroke="#37474f"/>
<line x1="1013.0" y1="215.3" x2="1021.0" y2="215.3" stroke="#37474f"/>
<text x="1017.0" y="264.6" text-anchor="middle" class="value">82.7</text>
<text x="1017.0" y="569" text-anchor="middle" class="tick">C3</text>
<rect x="180" y="588" width="16" height="16" rx="2" fill="#90A4AE"/>
<text x="203" y="601" class="label">C0 无券</text>
<rect x="405" y="588" width="16" height="16" rx="2" fill="#2F80ED"/>
<text x="428" y="601" class="label">C1 公共券</text>
<rect x="630" y="588" width="16" height="16" rx="2" fill="#00A896"/>
<text x="653" y="601" class="label">C2 老年定向券</text>
<rect x="855" y="588" width="16" height="16" rx="2" fill="#F2994A"/>
<text x="878" y="601" class="label">C3 混合券</text>
</svg>
