<svg xmlns="http://www.w3.org/2000/svg" width="980" height="540" viewBox="0 0 980 540" role="img" aria-labelledby="title desc">
<title id="title">天气情景下的交通方式转移</title>
<desc id="desc">常态、高温和强降雨条件下步行、公交、地铁和网约车的平均方式份额及置信区间。</desc>
<rect width="100%" height="100%" fill="#ffffff"/>
<style>text{font-family:"Microsoft YaHei","Noto Sans CJK SC",Arial,sans-serif;fill:#263238}.title{font-size:24px;font-weight:600}.subtitle{font-size:13px;fill:#607d8b}.axis{stroke:#cfd8dc;stroke-width:1}.tick{font-size:11px;fill:#607d8b}.label{font-size:12px}.value{font-size:11px;font-weight:600}</style>
<text x="48" y="42" class="title">天气情景下的交通方式转移</text>
<text x="48" y="66" class="subtitle">200 Agents、C0 无券、10 seeds；误差线为跨 seed 均值的 95% t 区间</text>
<line x1="85" y1="445.0" x2="910" y2="445.0" class="axis"/>
<text x="73" y="449.0" text-anchor="end" class="tick">0%</text>
<line x1="85" y1="395.7" x2="910" y2="395.7" class="axis"/>
<text x="73" y="399.7" text-anchor="end" class="tick">10%</text>
<line x1="85" y1="346.4" x2="910" y2="346.4" class="axis"/>
<text x="73" y="350.4" text-anchor="end" class="tick">20%</text>
<line x1="85" y1="297.1" x2="910" y2="297.1" class="axis"/>
<text x="73" y="301.1" text-anchor="end" class="tick">30%</text>
<line x1="85" y1="247.9" x2="910" y2="247.9" class="axis"/>
<text x="73" y="251.9" text-anchor="end" class="tick">40%</text>
<line x1="85" y1="198.6" x2="910" y2="198.6" class="axis"/>
<text x="73" y="202.6" text-anchor="end" class="tick">50%</text>
<line x1="85" y1="149.3" x2="910" y2="149.3" class="axis"/>
<text x="73" y="153.3" text-anchor="end" class="tick">60%</text>
<line x1="85" y1="100.0" x2="910" y2="100.0" class="axis"/>
<text x="73" y="104.0" text-anchor="end" class="tick">70%</text>
<rect x="123.5" y="438.3" width="42" height="6.7" rx="3" fill="#7B61FF"/>
<line x1="144.5" y1="435.8" x2="144.5" y2="440.7" stroke="#37474f"/>
<line x1="139.5" y1="435.8" x2="149.5" y2="435.8" stroke="#37474f"/>
<text x="144.5" y="430.3" text-anchor="middle" class="value">1.4</text>
<rect x="175.5" y="162.9" width="42" height="282.1" rx="3" fill="#2F80ED"/>
<line x1="196.5" y1="154.9" x2="196.5" y2="171.0" stroke="#37474f"/>
<line x1="191.5" y1="154.9" x2="201.5" y2="154.9" stroke="#37474f"/>
<text x="196.5" y="154.9" text-anchor="middle" class="value">57.2</text>
<rect x="227.5" y="270.2" width="42" height="174.8" rx="3" fill="#00A896"/>
<line x1="248.5" y1="261.0" x2="248.5" y2="279.5" stroke="#37474f"/>
<line x1="243.5" y1="261.0" x2="253.5" y2="261.0" stroke="#37474f"/>
<text x="248.5" y="262.2" text-anchor="middle" class="value">35.5</text>
<rect x="279.5" y="415.7" width="42" height="29.3" rx="3" fill="#F2994A"/>
<line x1="300.5" y1="411.2" x2="300.5" y2="420.3" stroke="#37474f"/>
<line x1="295.5" y1="411.2" x2="305.5" y2="411.2" stroke="#37474f"/>
<text x="300.5" y="407.7" text-anchor="middle" class="value">5.9</text>
<text x="222.5" y="475" text-anchor="middle" class="label">W0 常态</text>
<rect x="398.5" y="438.5" width="42" height="6.5" rx="3" fill="#7B61FF"/>
<line x1="419.5" y1="435.8" x2="419.5" y2="441.2" stroke="#37474f"/>
<line x1="414.5" y1="435.8" x2="424.5" y2="435.8" stroke="#37474f"/>
<text x="419.5" y="430.5" text-anchor="middle" class="value">1.3</text>
<rect x="450.5" y="170.4" width="42" height="274.6" rx="3" fill="#2F80ED"/>
<line x1="471.5" y1="161.5" x2="471.5" y2="179.4" stroke="#37474f"/>
<line x1="466.5" y1="161.5" x2="476.5" y2="161.5" stroke="#37474f"/>
<text x="471.5" y="162.4" text-anchor="middle" class="value">55.7</text>
<rect x="502.5" y="267.3" width="42" height="177.7" rx="3" fill="#00A896"/>
<line x1="523.5" y1="257.4" x2="523.5" y2="277.1" stroke="#37474f"/>
<line x1="518.5" y1="257.4" x2="528.5" y2="257.4" stroke="#37474f"/>
<text x="523.5" y="259.3" text-anchor="middle" class="value">36.1</text>
<rect x="554.5" y="410.9" width="42" height="34.1" rx="3" fill="#F2994A"/>
<line x1="575.5" y1="405.3" x2="575.5" y2="416.5" stroke="#37474f"/>
<line x1="570.5" y1="405.3" x2="580.5" y2="405.3" stroke="#37474f"/>
<text x="575.5" y="402.9" text-anchor="middle" class="value">6.9</text>
<text x="497.5" y="475" text-anchor="middle" class="label">W1 高温</text>
<rect x="673.5" y="441.7" width="42" height="3.3" rx="3" fill="#7B61FF"/>
<line x1="694.5" y1="440.5" x2="694.5" y2="442.9" stroke="#37474f"/>
<line x1="689.5" y1="440.5" x2="699.5" y2="440.5" stroke="#37474f"/>
<text x="694.5" y="433.7" text-anchor="middle" class="value">0.7</text>
<rect x="725.5" y="251.3" width="42" height="193.7" rx="3" fill="#2F80ED"/>
<line x1="746.5" y1="246.0" x2="746.5" y2="256.5" stroke="#37474f"/>
<line x1="741.5" y1="246.0" x2="751.5" y2="246.0" stroke="#37474f"/>
<text x="746.5" y="243.3" text-anchor="middle" class="value">39.3</text>
<rect x="777.5" y="222.0" width="42" height="223.0" rx="3" fill="#00A896"/>
<line x1="798.5" y1="212.9" x2="798.5" y2="231.1" stroke="#37474f"/>
<line x1="793.5" y1="212.9" x2="803.5" y2="212.9" stroke="#37474f"/>
<text x="798.5" y="214.0" text-anchor="middle" class="value">45.2</text>
<rect x="829.5" y="372.2" width="42" height="72.8" rx="3" fill="#F2994A"/>
<line x1="850.5" y1="367.0" x2="850.5" y2="377.3" stroke="#37474f"/>
<line x1="845.5" y1="367.0" x2="855.5" y2="367.0" stroke="#37474f"/>
<text x="850.5" y="364.2" text-anchor="middle" class="value">14.8</text>
<text x="772.5" y="475" text-anchor="middle" class="label">W2 强降雨</text>
<rect x="195" y="488" width="16" height="16" rx="2" fill="#7B61FF"/>
<text x="219" y="501" class="label">步行</text>
<rect x="340" y="488" width="16" height="16" rx="2" fill="#2F80ED"/>
<text x="364" y="501" class="label">公交</text>
<rect x="485" y="488" width="16" height="16" rx="2" fill="#00A896"/>
<text x="509" y="501" class="label">地铁</text>
<rect x="630" y="488" width="16" height="16" rx="2" fill="#F2994A"/>
<text x="654" y="501" class="label">网约车</text>
</svg>
